<svg width="148" height="153" viewBox="0 0 148 153" fill="none" xmlns="http://www.w3.org/2000/svg">
<path d="M43 124V126.5H46.436L45.3787 123.231L43 124ZM65.5229 63.5L63.6204 61.8781L63.5912 61.9123L63.5632 61.9476L65.5229 63.5ZM83 43L84.9025 44.6219L85.5 43.921V43H83ZM42.9782 63.5L40.6425 62.6086L42.9782 63.5ZM48.3799 85.1408L46.4202 83.5884L48.3799 85.1408ZM111.088 134.816L113.048 136.368L111.088 134.816ZM136.547 102.678L134.587 101.126L136.547 102.678ZM73.8385 53.0026L75.7981 54.555L73.8385 53.0026ZM92.4463 93.8958L91.169 91.7468L92.4463 93.8958ZM81.0975 41.3781L63.6204 61.8781L67.4253 65.1219L84.9025 44.6219L81.0975 41.3781ZM5.5 84V43H0.5V84H5.5ZM43 121.5C22.2893 121.5 5.5 104.711 5.5 84H0.5C0.5 107.472 19.5279 126.5 43 126.5V121.5ZM63.5632 61.9476C61.4383 64.6301 59.3552 67.1565 57.3417 69.5919C55.3336 72.0207 53.3873 74.3677 51.5643 76.6593C47.9228 81.2368 44.6865 85.6989 42.2724 90.4133C37.3495 100.027 35.9847 110.433 40.6213 124.769L45.3787 123.231C41.1214 110.067 42.4466 101.043 46.7228 92.6923C48.9083 88.4243 51.8989 84.2702 55.4772 79.772C57.2642 77.5257 59.176 75.2201 61.1951 72.778C63.2087 70.3425 65.3217 67.7801 67.4825 65.0524L63.5632 61.9476ZM43 5.5C63.7107 5.5 80.5 22.2893 80.5 43H85.5C85.5 19.5279 66.4721 0.5 43 0.5V5.5ZM43 0.5C19.5279 0.5 0.5 19.5279 0.5 43H5.5C5.5 22.2893 22.2893 5.5 43 5.5V0.5ZM43 3C42.2944 5.39835 42.2913 5.39745 42.2883 5.39656C42.2874 5.39629 42.2845 5.39542 42.2827 5.39488C42.2791 5.39381 42.2758 5.39281 42.2728 5.39189C42.2668 5.39006 42.262 5.38855 42.2583 5.38738C42.251 5.38504 42.2482 5.38408 42.2498 5.38462C42.253 5.38571 42.2736 5.39283 42.3098 5.40713C42.3822 5.43574 42.5167 5.49288 42.6996 5.58769C43.0647 5.77705 43.6229 6.11695 44.2668 6.68216C45.5368 7.79698 47.2275 9.86482 48.3872 13.5932C50.7312 21.1286 50.9455 35.6124 40.6425 62.6086L45.3138 64.3914C55.7717 36.9893 55.9969 21.223 53.1616 12.1081C51.7317 7.51122 49.5352 4.65375 47.5654 2.92456C46.5893 2.06777 45.6896 1.50598 45.0016 1.14916C44.6579 0.970887 44.3671 0.84381 44.1459 0.756483C44.0353 0.712806 43.942 0.679022 43.8679 0.653707C43.8309 0.641047 43.7987 0.630498 43.7716 0.621882C43.758 0.617574 43.7457 0.613749 43.7347 0.610384C43.7292 0.608701 43.724 0.607134 43.7192 0.605679C43.7168 0.604953 43.7134 0.60394 43.7122 0.60358C43.7089 0.6026 43.7056 0.601647 43 3ZM40.6425 62.6086C30.2011 89.9675 29.9449 105.156 32.8238 113.698C34.2841 118.031 36.5392 120.609 38.5817 122.104C39.5892 122.842 40.5159 123.295 41.2215 123.569C41.5742 123.706 41.8723 123.799 42.0988 123.86C42.2122 123.891 42.3078 123.913 42.3838 123.93C42.4217 123.938 42.4548 123.945 42.4827 123.951C42.4967 123.953 42.5094 123.956 42.5207 123.958C42.5264 123.959 42.5318 123.96 42.5368 123.961C42.5393 123.961 42.5428 123.962 42.5441 123.962C42.5475 123.963 42.5508 123.963 42.9782 121.5C43.4055 119.037 43.4087 119.037 43.4118 119.038C43.4127 119.038 43.4158 119.039 43.4176 119.039C43.4214 119.04 43.4249 119.04 43.428 119.041C43.4344 119.042 43.4396 119.043 43.4437 119.044C43.4518 119.045 43.4554 119.046 43.4547 119.046C43.4534 119.046 43.435 119.042 43.4013 119.033C43.3339 119.014 43.2062 118.976 43.0317 118.909C42.6831 118.773 42.1501 118.52 41.5356 118.07C40.3343 117.191 38.6967 115.468 37.5619 112.101C35.2506 105.243 34.9944 91.4309 45.3138 64.3914L40.6425 62.6086ZM134.587 101.126L109.129 133.264L113.048 136.368L138.507 104.23L134.587 101.126ZM50.3395 86.6931L75.7981 54.555L71.8788 51.4503L46.4202 83.5884L50.3395 86.6931ZM56.4488 139.373C40.2146 126.513 37.4794 102.927 50.3395 86.6931L46.4202 83.5884C31.8454 101.987 34.9454 128.718 53.3441 143.292L56.4488 139.373ZM109.129 133.264C96.2687 149.498 72.683 152.233 56.4488 139.373L53.3441 143.292C71.7429 157.867 98.4733 154.767 113.048 136.368L109.129 133.264ZM128.478 48.4457C144.712 61.3058 147.448 84.8914 134.587 101.126L138.507 104.23C153.081 85.8316 149.982 59.1012 131.583 44.5264L128.478 48.4457ZM131.583 44.5264C113.184 29.9516 86.4537 33.0515 71.8788 51.4503L75.7981 54.555C88.6582 38.3208 112.244 35.5856 128.478 48.4457L131.583 44.5264ZM127 44.3044C125.03 45.8433 125.028 45.8412 125.026 45.8391C125.026 45.8385 125.024 45.8365 125.024 45.8353C125.022 45.8329 125.02 45.8308 125.019 45.829C125.016 45.8254 125.014 45.8229 125.013 45.8216C125.011 45.8189 125.012 45.8206 125.017 45.8269C125.026 45.8393 125.047 45.8695 125.079 45.9171C125.142 46.0125 125.246 46.1768 125.371 46.4077C125.622 46.8698 125.958 47.5942 126.238 48.5627C126.791 50.4802 127.142 53.4203 126.082 57.2825C123.95 65.0483 115.966 77.0083 91.169 91.7468L93.7237 96.0449C118.979 81.0341 128.271 68.1984 130.903 58.6058C132.225 53.7888 131.83 49.909 131.042 47.1765C130.65 45.8199 130.167 44.7617 129.765 44.0225C129.565 43.6527 129.384 43.3617 129.245 43.1519C129.175 43.0469 129.116 42.962 129.069 42.8976C129.046 42.8654 129.026 42.8382 129.009 42.8162C129.001 42.8052 128.993 42.7955 128.987 42.787C128.984 42.7828 128.981 42.7789 128.978 42.7753C128.976 42.7735 128.975 42.7711 128.974 42.7702C128.972 42.7678 128.97 42.7655 127 44.3044ZM91.169 91.7468C65.9559 106.733 55.9971 118.959 52.5686 127.873C50.8397 132.368 50.7922 135.975 51.2663 138.556C51.5011 139.835 51.8591 140.834 52.1777 141.542C52.3369 141.895 52.4863 142.175 52.6057 142.381C52.6654 142.484 52.7177 142.568 52.76 142.634C52.7812 142.667 52.7999 142.695 52.8158 142.719C52.8238 142.731 52.831 142.741 52.8376 142.751C52.8409 142.756 52.8439 142.76 52.8468 142.764C52.8483 142.766 52.8503 142.769 52.851 142.77C52.853 142.773 52.855 142.776 54.8965 141.333C56.938 139.89 56.9398 139.892 56.9416 139.895C56.9422 139.896 56.9439 139.898 56.945 139.9C56.9471 139.903 56.9491 139.906 56.9509 139.908C56.9544 139.913 56.9573 139.917 56.9594 139.921C56.9637 139.927 56.9652 139.929 56.9643 139.928C56.9624 139.925 56.9505 139.906 56.9309 139.873C56.8916 139.805 56.8212 139.676 56.7364 139.488C56.5669 139.111 56.3391 138.497 56.184 137.653C55.878 135.987 55.8333 133.313 57.2354 129.668C60.0689 122.3 68.885 110.808 93.7237 96.0449L91.169 91.7468Z" fill="white"/>
</svg>
